<?xml version="1.0" standalone="no"?>
<!DOCTYPE svg PUBLIC "-//W3C//DTD SVG 20010904//EN"
 "http://www.w3.org/TR/2001/REC-SVG-20010904/DTD/svg10.dtd">
<svg version="1.0" xmlns="http://www.w3.org/2000/svg"
 width="755.000000pt" height="755.000000pt" viewBox="0 0 755.000000 755.000000"
 preserveAspectRatio="xMidYMid meet">
<metadata>
Created by potrace 1.14, written by Peter Selinger 2001-2017
</metadata>
<g transform="translate(0.000000,755.000000) scale(0.100000,-0.100000)"
fill="#000000" stroke="none">
<path d="M1972 7381 c-7 -4 -25 -6 -39 -3 -20 4 -24 2 -18 -9 7 -11 5 -11 -10
1 -20 17 -25 17 -34 1 -4 -6 -21 -11 -38 -13 -17 -1 -29 -6 -27 -10 5 -7 -18
-12 -38 -9 -5 0 -8 -4 -8 -10 0 -6 -7 -9 -15 -5 -9 3 -15 0 -15 -9 0 -8 -9
-15 -21 -15 -11 0 -17 -4 -14 -10 3 -5 -1 -10 -9 -10 -9 0 -16 -4 -16 -10 0
-5 -11 -12 -25 -16 -13 -3 -23 -11 -22 -18 1 -6 -6 -10 -15 -10 -11 1 -14 -4
-11 -14 4 -9 2 -13 -4 -9 -5 3 -22 -9 -38 -28 -15 -19 -33 -35 -41 -35 -8 0
-14 -5 -14 -12 0 -6 -15 -25 -32 -41 -18 -17 -26 -27 -18 -23 8 4 5 -1 -7 -12
-12 -11 -19 -22 -16 -26 4 -3 -1 -6 -11 -6 -9 0 -14 -4 -11 -10 3 -5 2 -10 -3
-10 -5 0 -17 -15 -27 -34 -11 -19 -22 -33 -26 -30 -7 4 -18 -15 -15 -26 0 -3
-9 -18 -21 -34 -13 -16 -23 -35 -23 -42 0 -8 -4 -14 -9 -14 -5 0 -12 -11 -15
-25 -4 -16 -11 -23 -18 -19 -6 4 -8 3 -4 -4 3 -6 2 -13 -4 -17 -6 -4 -8 -11
-5 -16 4 -5 1 -9 -5 -9 -7 0 -10 -6 -7 -14 3 -8 -1 -17 -10 -20 -9 -4 -13 -9
-10 -12 3 -3 -3 -21 -14 -40 -10 -19 -19 -41 -19 -49 0 -8 -4 -15 -10 -15 -5
0 -10 -11 -10 -24 0 -13 -7 -27 -16 -30 -8 -3 -13 -10 -9 -16 3 -5 -1 -22 -9
-38 -8 -16 -13 -32 -10 -34 2 -3 -2 -18 -10 -33 -8 -16 -13 -32 -10 -37 3 -4
1 -8 -5 -8 -5 0 -8 -11 -7 -25 2 -13 -1 -22 -5 -19 -8 5 -13 -25 -12 -63 1 -7
-3 -13 -7 -13 -4 0 -11 -7 -14 -16 -4 -10 -2 -13 6 -8 7 4 8 3 4 -4 -12 -19
-22 -74 -25 -125 -1 -20 -5 -26 -13 -21 -9 5 -9 2 1 -9 10 -12 10 -17 2 -17
-8 0 -10 -8 -6 -19 3 -10 1 -31 -5 -46 -8 -22 -8 -30 2 -37 9 -5 9 -8 1 -8 -7
0 -10 -10 -7 -26 3 -17 1 -23 -7 -19 -8 6 -8 2 0 -14 8 -14 8 -21 1 -21 -8 0
-8 -6 0 -20 9 -16 8 -20 -7 -21 -16 0 -16 -1 2 -9 11 -5 14 -9 8 -9 -7 -1 -13
-6 -13 -12 0 -5 5 -7 11 -3 8 5 9 2 1 -12 -8 -15 -7 -24 6 -39 16 -19 16 -19
0 -6 -21 15 -24 2 -5 -18 10 -11 10 -13 0 -7 -7 4 -13 2 -13 -3 0 -6 6 -11 13
-11 8 0 7 -4 -3 -10 -13 -9 -13 -10 0 -10 13 0 13 -1 0 -10 -10 -6 -11 -10 -2
-10 6 0 12 -5 12 -11 0 -5 -5 -7 -11 -3 -8 5 -9 2 -2 -11 6 -10 8 -27 5 -38
-4 -15 -2 -18 8 -12 9 5 11 4 6 -4 -10 -16 -15 -61 -7 -61 4 0 7 -10 8 -22 2
-51 8 -78 16 -78 5 0 4 -6 -2 -13 -6 -8 -8 -16 -6 -19 8 -7 17 -48 19 -80 0
-16 4 -28 7 -28 3 0 6 -6 6 -12 0 -7 3 -26 7 -43 3 -16 8 -43 12 -60 3 -16 9
-31 14 -33 4 -2 5 -12 2 -24 -3 -13 -1 -19 5 -15 7 5 9 0 6 -13 -3 -11 -1 -20
5 -20 6 0 9 -9 7 -20 -2 -11 1 -22 6 -25 5 -4 7 -11 4 -16 -4 -5 -1 -9 6 -9 7
0 9 -8 6 -21 -3 -12 0 -22 8 -25 7 -3 16 -12 19 -20 3 -8 2 -13 -3 -10 -5 4
-7 -3 -4 -14 3 -11 8 -20 12 -20 3 0 12 -9 19 -21 9 -14 10 -19 2 -14 -8 5 -8
0 1 -16 7 -13 12 -27 11 -31 -1 -5 3 -8 9 -8 5 0 7 -5 4 -10 -3 -6 0 -13 9
-16 8 -3 13 -14 11 -25 -2 -11 2 -19 10 -19 8 0 12 -8 10 -20 -2 -11 1 -20 6
-20 5 0 19 -9 31 -20 22 -21 68 -28 68 -10 0 5 7 7 15 4 8 -4 15 -1 15 6 0 6
5 8 13 4 7 -5 6 0 -3 11 -8 10 -10 16 -4 12 7 -4 14 0 18 8 3 8 0 15 -6 15 -7
0 -7 4 1 14 9 10 9 16 1 21 -8 5 -7 11 2 23 10 12 10 14 1 8 -12 -6 -18 5 -14
27 0 4 -3 7 -8 7 -5 0 -12 10 -16 23 -4 12 -9 28 -11 35 -2 6 -5 19 -7 28 -2
8 -8 19 -14 22 -5 4 -9 15 -7 25 1 9 -1 17 -5 17 -4 0 -8 12 -9 27 -1 15 -8
30 -15 35 -6 4 -8 8 -3 8 5 0 2 8 -5 17 -12 15 -12 16 1 8 11 -7 10 -2 -4 19
-11 18 -13 26 -5 21 8 -3 5 1 -5 9 -13 10 -15 16 -7 16 9 0 10 4 4 13 -6 6
-10 24 -9 39 1 14 -3 24 -8 21 -5 -4 -7 1 -3 10 3 10 2 17 -3 17 -5 0 -6 7 -3
17 5 12 3 14 -8 8 -12 -7 -12 -6 -1 7 8 10 9 19 3 22 -5 4 -9 14 -9 24 1 9 -2
29 -5 45 -5 19 -4 27 5 27 10 0 9 3 -1 9 -17 11 -24 104 -7 94 6 -4 5 1 -3 10
-7 9 -11 26 -8 36 3 11 -2 30 -11 42 -9 13 -10 19 -3 15 9 -6 11 0 8 22 -3 18
0 33 6 36 8 3 8 5 -1 5 -7 1 -10 6 -7 11 4 6 1 18 -7 27 -9 12 -9 15 0 9 7 -4
12 -2 13 6 0 7 2 30 4 51 1 20 -1 40 -6 43 -5 3 -6 11 -2 17 7 12 13 56 14
119 1 21 4 36 8 34 4 -3 7 4 7 14 0 10 -3 17 -7 14 -4 -2 -5 5 -2 16 3 11 9
18 13 15 3 -2 6 9 5 26 -1 16 2 32 6 35 5 2 4 16 -1 29 -7 18 -6 23 4 19 9 -4
11 4 8 27 -4 25 -2 30 9 24 11 -7 10 -4 -1 10 -8 10 -10 16 -4 12 7 -4 14 3
16 18 3 13 0 26 -6 29 -6 2 -4 5 4 5 15 1 19 15 21 68 1 13 6 20 13 17 9 -3
11 4 8 26 -2 18 0 30 7 30 6 0 11 9 11 20 0 11 5 20 12 20 6 0 8 3 5 7 -4 3
-1 13 6 21 9 13 9 14 0 8 -9 -5 -11 -2 -7 8 3 9 11 13 17 9 6 -4 8 0 4 11 -4
10 -1 19 8 22 7 3 11 12 8 20 -3 8 0 14 7 14 6 0 8 5 5 10 -3 6 -2 10 4 10 5
0 8 9 6 20 -2 11 1 19 8 17 7 -1 11 6 9 16 -2 9 2 17 9 17 6 0 8 7 5 16 -3 8
-2 12 3 9 10 -5 27 33 23 49 -2 5 4 6 12 3 9 -4 15 -3 14 1 -3 11 35 82 44 82
4 0 8 9 8 19 0 11 9 23 21 26 17 6 19 9 8 16 -11 7 -10 9 4 9 9 0 17 6 17 14
0 8 7 16 15 20 8 3 15 12 15 21 0 8 7 15 16 15 8 0 13 3 11 8 -6 10 30 42 39
34 4 -4 4 1 1 11 -4 10 -3 16 2 13 11 -7 33 19 24 28 -4 4 1 4 11 0 13 -5 17
-4 12 4 -3 6 3 13 15 17 12 4 18 12 15 20 -3 9 0 12 10 8 7 -3 14 0 14 7 0 6
4 9 9 6 5 -3 11 1 15 9 3 8 12 15 19 15 8 0 22 9 32 20 15 16 21 18 33 7 11
-8 14 -9 9 0 -5 8 0 11 15 11 31 -2 48 -16 41 -35 -4 -9 -2 -14 3 -10 6 3 7
-20 4 -59 -3 -38 -1 -69 5 -76 7 -8 7 -9 -1 -5 -7 4 -14 -3 -16 -18 -3 -13 -2
-22 3 -20 10 7 6 -15 -9 -42 -7 -13 -10 -23 -6 -23 3 0 0 -8 -7 -17 -10 -11
-10 -14 -1 -9 17 10 15 -2 -4 -21 -13 -13 -13 -17 -2 -24 10 -7 10 -9 -1 -9
-8 0 -11 -3 -8 -7 4 -3 -1 -12 -11 -20 -9 -8 -11 -11 -3 -7 11 5 13 3 8 -10
-4 -10 -7 -22 -7 -27 0 -6 -4 -8 -9 -4 -6 3 -10 -3 -10 -12 -1 -39 -5 -53 -13
-53 -5 0 -7 -4 -3 -9 3 -5 0 -13 -6 -16 -5 -4 -8 -14 -5 -22 4 -8 1 -11 -5 -8
-6 4 -9 -1 -7 -11 2 -12 -2 -18 -10 -16 -8 1 -11 -2 -7 -8 4 -6 -1 -22 -10
-36 -9 -14 -14 -32 -11 -40 3 -8 -1 -17 -10 -21 -8 -3 -13 -12 -10 -20 4 -9 2
-11 -6 -7 -8 5 -9 2 -5 -10 4 -10 1 -19 -8 -22 -8 -4 -12 -11 -8 -17 4 -7 6
-26 4 -43 -1 -19 3 -36 12 -41 7 -4 16 -16 20 -25 3 -10 13 -18 22 -18 8 0 15
-4 15 -10 0 -5 9 -10 20 -10 11 0 20 -5 20 -10 0 -7 7 -7 22 1 18 10 20 9 14
-7 -5 -17 -5 -17 6 -3 14 17 19 19 43 19 9 0 19 8 22 18 10 25 29 42 38 34 5
-4 5 -1 1 6 -4 7 -2 19 4 27 7 8 9 15 4 15 -4 0 1 6 11 14 11 8 16 19 12 30
-4 9 -3 15 1 13 4 -3 16 7 26 21 12 16 14 22 5 17 -8 -4 -2 4 14 19 29 28 35
42 15 30 -7 -4 -3 3 9 15 13 12 30 35 38 51 9 17 22 30 31 30 8 0 13 4 9 9 -3
5 5 17 17 25 12 9 19 19 15 22 -4 4 7 15 23 25 17 11 30 26 30 34 0 9 5 13 10
10 6 -3 10 -1 10 5 0 6 5 8 12 4 7 -4 8 -3 4 5 -5 7 3 20 18 32 15 12 23 26
19 32 -4 7 1 6 10 -2 15 -11 17 -11 17 2 0 8 9 17 20 20 11 3 20 12 20 20 0
13 33 31 52 28 4 0 5 6 2 14 -4 10 0 15 11 15 9 0 23 6 30 13 37 32 46 38 55
32 5 -3 14 4 20 15 6 11 17 20 25 20 8 0 15 5 15 10 0 6 9 10 20 10 10 0 23 8
29 18 5 9 12 16 15 15 13 -5 106 37 106 48 0 3 11 5 25 4 14 -2 23 1 19 6 -3
5 4 9 15 9 11 0 22 4 26 9 3 6 13 10 23 10 42 1 58 4 68 13 7 5 26 6 43 3 20
-3 31 -1 31 6 0 8 4 9 13 0 8 -6 17 -8 20 -4 4 3 7 1 7 -6 0 -7 4 -10 9 -6 12
7 34 -31 27 -44 -3 -5 0 -13 7 -19 8 -7 12 -30 10 -64 -4 -80 -5 -82 -17 -97
-8 -11 -8 -13 1 -8 6 4 14 3 18 -3 3 -5 0 -10 -8 -10 -8 0 -17 -9 -20 -20 -3
-11 0 -20 6 -20 8 0 9 -3 1 -8 -15 -11 -37 -69 -29 -81 3 -7 0 -8 -9 -5 -10 4
-14 0 -12 -13 2 -10 -4 -25 -13 -33 -9 -8 -16 -25 -15 -38 1 -18 -1 -20 -13
-11 -11 10 -12 8 -7 -6 4 -10 1 -21 -7 -26 -8 -4 -14 -13 -14 -18 0 -6 -9 -17
-20 -26 -11 -9 -14 -13 -6 -9 9 5 8 -2 -5 -19 -10 -15 -23 -27 -27 -27 -5 0
-5 -4 -2 -10 3 -5 -1 -10 -10 -10 -9 0 -14 -4 -11 -8 3 -5 -6 -20 -20 -35 -14
-15 -23 -27 -20 -27 3 0 -13 -18 -34 -40 -22 -23 -40 -45 -40 -51 0 -6 -4 -8
-9 -4 -5 3 -12 -4 -16 -15 -3 -11 -11 -20 -16 -20 -6 0 -7 -5 -3 -12 5 -7 2
-9 -7 -6 -9 3 -23 -9 -38 -33 -14 -21 -28 -36 -33 -33 -4 3 -8 0 -8 -6 0 -6
-4 -8 -10 -5 -5 3 -10 -1 -10 -10 0 -9 -4 -14 -9 -10 -5 3 -12 -4 -16 -15 -4
-11 -11 -18 -16 -15 -5 4 -9 1 -9 -5 0 -6 -5 -8 -12 -4 -6 4 -8 3 -5 -3 6 -10
-26 -43 -43 -43 -6 0 -9 -5 -7 -12 1 -7 -5 -13 -13 -13 -8 0 -14 -6 -13 -13 3
-11 -3 -14 -23 -11 -3 0 -15 -11 -28 -25 -12 -14 -27 -26 -34 -26 -7 0 -12 -7
-12 -16 0 -8 -4 -13 -9 -9 -6 3 -24 -8 -41 -25 -17 -17 -35 -28 -40 -25 -4 3
-11 -2 -14 -11 -3 -8 -10 -12 -16 -9 -5 3 -10 -1 -10 -9 0 -9 -5 -16 -11 -16
-7 0 -20 -10 -30 -22 -11 -12 -19 -16 -19 -8 0 7 -9 3 -20 -10 -11 -13 -20
-19 -20 -15 0 5 -7 0 -16 -11 -8 -10 -13 -12 -9 -4 4 8 -1 6 -10 -5 -9 -11
-21 -19 -26 -17 -5 1 -9 -3 -9 -9 0 -5 -4 -8 -9 -5 -4 3 -23 -6 -41 -19 -18
-13 -38 -22 -43 -18 -6 3 -7 2 -4 -3 3 -6 -3 -16 -15 -23 -16 -10 -19 -10 -13
1 3 7 -2 3 -13 -9 -11 -12 -23 -19 -27 -15 -3 4 -13 -1 -20 -12 -8 -10 -18
-15 -23 -12 -6 3 -12 -1 -16 -9 -3 -8 -11 -15 -18 -15 -6 0 -23 -10 -36 -22
-14 -13 -22 -16 -17 -8 5 8 -3 5 -17 -7 -13 -13 -32 -23 -42 -23 -9 0 -15 -4
-12 -8 2 -4 -4 -14 -16 -21 -16 -10 -19 -10 -13 1 3 7 -1 4 -9 -6 -9 -11 -16
-16 -16 -11 0 5 -7 0 -15 -11 -8 -10 -15 -14 -15 -9 0 14 -49 -72 -52 -93 -2
-9 -7 -20 -13 -24 -6 -5 -5 -8 3 -8 7 0 11 -4 7 -9 -3 -5 -1 -12 5 -16 5 -3
10 -13 10 -22 0 -21 46 -63 69 -63 9 0 23 -6 30 -12 11 -10 13 -10 7 0 -4 6
-2 12 3 12 6 0 11 -6 11 -12 0 -10 2 -10 9 0 4 8 11 13 15 13 3 -1 7 -1 9 0
17 5 46 11 60 12 9 1 17 4 17 8 0 4 7 10 16 13 10 4 13 2 8 -7 -6 -9 -5 -9 8
0 8 7 19 9 23 5 5 -4 5 -1 1 6 -6 11 5 17 27 13 4 -1 10 6 13 14 5 12 10 13
19 5 10 -9 16 -6 25 9 6 13 21 21 36 21 14 0 22 4 19 10 -3 6 3 10 15 10 12 0
19 4 16 8 -2 4 5 9 17 9 11 1 25 9 29 18 5 8 13 13 19 10 5 -4 9 -1 9 5 0 6 5
8 10 5 6 -3 10 -1 10 5 0 6 4 9 9 6 5 -3 11 1 15 9 3 8 12 15 21 15 8 0 15 8
15 18 0 13 2 14 9 3 7 -11 11 -10 20 5 9 17 12 17 22 4 10 -13 10 -13 6 0 -2
8 2 21 9 28 8 7 14 10 14 6 0 -3 15 5 34 20 19 14 40 26 46 26 6 0 9 4 6 8 -3
5 2 9 10 9 11 0 10 -5 -5 -21 -10 -12 -17 -25 -16 -31 2 -5 6 -22 9 -37 4 -16
13 -28 22 -28 9 0 12 -5 8 -12 -5 -8 0 -9 14 -6 12 4 25 2 28 -3 3 -5 15 -4
27 3 12 7 28 11 36 9 7 -1 10 2 6 8 -3 6 1 11 9 11 9 0 25 9 35 19 11 11 22
16 26 13 3 -4 10 -1 14 6 4 7 17 14 29 15 16 1 18 4 10 14 -8 10 -7 12 4 8 9
-4 22 0 29 8 8 7 20 12 28 9 8 -3 11 0 7 7 -5 7 1 11 13 11 12 0 21 5 21 11 0
6 7 9 14 6 10 -4 13 -1 9 9 -3 9 2 14 16 14 12 0 24 7 27 15 4 8 10 12 15 9 5
-3 20 6 34 20 14 14 25 22 25 19 0 -3 12 6 26 20 15 15 31 24 37 20 6 -4 8 0
4 10 -4 12 -1 15 14 12 11 -2 18 -1 15 3 -5 9 20 33 27 26 3 -3 10 4 17 15 6
12 15 19 20 16 5 -3 14 4 20 15 6 11 17 20 25 20 8 0 15 7 15 15 0 14 12 19
33 16 4 0 7 3 7 9 0 11 89 100 101 100 5 0 8 6 7 13 -2 6 3 11 11 9 9 -2 11 3
7 13 -3 9 -2 14 3 11 5 -3 19 10 32 28 13 19 28 32 33 29 5 -4 7 1 3 10 -4 11
1 18 14 22 10 4 17 10 14 14 -2 4 3 17 13 27 33 37 54 77 57 110 2 19 -1 34
-7 34 -5 0 -8 6 -5 14 3 8 -2 21 -11 29 -18 16 -92 28 -92 15 0 -4 -7 -8 -15
-8 -9 0 -18 -7 -21 -15 -4 -8 -9 -13 -13 -10 -4 2 -14 -5 -21 -16 -8 -10 -20
-19 -27 -19 -7 0 -12 -3 -12 -7 3 -20 -2 -34 -11 -28 -5 3 -10 -1 -10 -10 0
-9 -3 -14 -7 -12 -10 6 -34 -19 -26 -27 4 -3 -1 -6 -11 -6 -9 0 -15 -3 -13 -7
5 -10 -29 -43 -36 -36 -3 2 -8 -5 -12 -16 -3 -12 -11 -19 -16 -16 -8 6 -13 -9
-10 -28 1 -5 -3 -6 -8 -3 -11 7 -33 -19 -23 -28 4 -4 3 -6 -3 -4 -13 4 -66
-43 -59 -53 2 -4 -5 -6 -17 -4 -18 4 -19 2 -8 -13 7 -9 10 -14 5 -10 -4 4 -18
-4 -31 -17 -12 -14 -25 -22 -28 -19 -3 3 -8 -4 -12 -15 -3 -12 -10 -19 -15
-16 -5 3 -14 -4 -20 -15 -6 -11 -15 -18 -21 -15 -5 4 -9 1 -9 -5 0 -6 -4 -8
-10 -5 -5 3 -10 -1 -10 -9 0 -14 -11 -20 -32 -17 -4 0 -4 -7 -1 -16 5 -13 2
-15 -12 -9 -11 4 -16 4 -13 0 7 -7 -15 -34 -28 -34 -4 0 -13 -8 -21 -17 -9
-12 -12 -13 -8 -3 4 8 -2 4 -14 -10 -11 -14 -25 -25 -31 -25 -6 0 -14 -6 -19
-13 -6 -10 -10 -9 -14 7 -3 12 -1 19 3 16 5 -3 12 0 16 6 4 8 9 7 16 -2 7 -10
8 -8 5 9 -3 12 -1 19 4 16 5 -3 12 2 15 11 4 9 13 14 20 11 8 -3 11 0 7 10 -3
7 -1 14 5 14 6 0 27 16 46 35 20 19 41 35 46 35 6 0 10 8 10 18 0 14 2 15 10
2 7 -11 10 -11 10 -2 0 16 69 88 81 84 5 -1 9 3 9 10 0 7 22 32 48 57 27 26
51 54 55 64 3 9 10 17 15 17 5 0 15 13 22 30 7 16 15 28 19 27 3 -1 6 0 7 3 1
5 37 49 67 81 9 10 18 22 18 27 4 22 12 31 23 25 6 -4 5 1 -3 10 -12 15 -12
17 4 11 12 -5 16 -4 11 4 -3 6 -2 13 4 17 6 4 8 11 4 16 -3 5 0 8 8 7 9 -2 12
5 10 22 -2 20 -1 22 7 10 10 -13 11 -13 12 0 1 8 1 18 0 23 0 4 4 7 10 7 5 0
7 5 4 10 -3 6 -2 10 3 10 6 0 13 11 16 25 4 17 11 23 19 19 9 -5 9 -4 0 6 -9
10 -8 16 3 27 8 8 12 19 9 24 -4 5 -1 9 4 9 6 0 10 3 10 8 -3 20 2 32 12 26 7
-4 7 1 -1 16 -9 18 -9 21 0 15 10 -6 12 -1 8 18 -3 15 -1 24 3 21 9 -5 13 9
10 34 -1 6 2 12 6 12 5 0 9 9 10 20 1 13 -3 18 -10 14 -7 -3 -2 3 10 13 16 13
20 22 13 33 -5 9 -5 19 2 27 6 7 7 13 3 13 -4 0 -1 8 6 17 8 9 9 14 3 10 -19
-11 -25 21 -8 38 9 8 11 15 5 15 -6 0 -8 6 -6 13 10 29 13 67 5 62 -6 -3 -8 8
-6 25 2 17 -1 33 -6 36 -5 3 -3 13 4 22 10 12 10 14 1 8 -9 -5 -13 0 -13 14 0
12 -4 19 -8 16 -5 -3 -8 8 -7 24 1 16 -3 28 -9 27 -5 -1 -11 3 -11 8 -4 24
-18 45 -32 45 -8 0 -11 5 -8 10 3 6 -1 10 -10 10 -9 0 -14 4 -10 9 3 5 -4 12
-15 16 -11 4 -18 11 -15 16 3 5 -2 6 -11 2 -12 -4 -15 -3 -10 5 5 8 -1 12 -17
12 -14 0 -37 7 -53 14 -15 8 -31 13 -36 10 -4 -3 -8 1 -8 8 0 9 -3 9 -10 -2
-5 -8 -10 -10 -10 -4 0 13 -150 15 -167 2 -9 -7 -13 -6 -13 3 -1 10 -4 9 -11
-3 -7 -14 -15 -15 -34 -8 -17 6 -25 6 -25 -1 0 -6 -4 -7 -10 -4 -5 3 -10 0
-10 -7 0 -9 -3 -9 -10 2 -6 10 -10 11 -10 3 0 -7 -11 -13 -25 -13 -14 0 -25
-4 -25 -9 0 -6 -9 -8 -20 -6 -11 2 -20 0 -20 -5 0 -5 -12 -13 -27 -16 -16 -4
-34 -11 -41 -17 -7 -5 -15 -7 -18 -4 -4 3 -13 0 -21 -8 -8 -8 -23 -15 -33 -15
-11 0 -23 -6 -27 -14 -4 -8 -12 -16 -18 -18 -5 -2 -9 -6 -8 -10 1 -3 -5 -5
-15 -3 -9 1 -25 -7 -35 -19 -10 -11 -16 -14 -12 -6 4 8 -1 6 -9 -4 -9 -11 -16
-16 -16 -10 0 5 -10 -2 -21 -16 -11 -14 -18 -19 -14 -13 4 9 1 11 -9 7 -9 -3
-13 -10 -10 -15 3 -5 -2 -9 -10 -9 -9 0 -16 -5 -16 -12 0 -6 -3 -9 -6 -5 -3 3
-16 -5 -29 -18 -12 -14 -25 -22 -28 -18 -4 3 -7 1 -7 -6 0 -7 -4 -9 -10 -6 -5
3 -10 -1 -10 -10 0 -9 -4 -14 -9 -11 -5 3 -11 -1 -15 -9 -3 -8 -15 -15 -26
-15 -12 0 -18 -4 -15 -10 3 -5 1 -10 -5 -10 -10 0 -7 40 4 59 4 5 2 12 -4 16
-5 3 -10 11 -10 16 0 6 6 7 13 3 9 -6 9 -5 0 7 -6 8 -11 24 -9 34 2 11 -1 23
-5 26 -5 3 -10 17 -11 32 -1 15 -6 27 -10 27 -4 0 -8 9 -8 20 0 11 -5 20 -12
20 -6 0 -8 3 -5 6 4 4 -3 15 -15 25 -11 11 -18 19 -14 19 4 0 1 6 -6 14 -7 8
-16 12 -20 9 -5 -2 -8 3 -8 13 0 11 -6 15 -20 11 -11 -3 -18 -1 -14 4 3 5 -2
9 -11 9 -9 0 -14 4 -11 9 4 5 -3 7 -14 4 -12 -3 -20 0 -20 7 0 10 -3 10 -15 0
-14 -11 -19 -7 -16 13 1 9 -1 9 -17 -2z m668 -1666 c0 -8 -6 -14 -12 -12 -7 1
-12 -3 -11 -8 1 -6 -7 -12 -18 -12 -10 -1 -19 3 -19 8 0 6 4 8 9 5 4 -3 16 3
26 14 22 24 25 25 25 5z m-55 -53 c-3 -3 -11 0 -18 7 -9 10 -8 11 6 5 10 -3
15 -9 12 -12z m-35 -12 c0 -5 -5 -10 -11 -10 -5 0 -7 5 -4 10 3 6 8 10 11 10
2 0 4 -4 4 -10z"/>
<path d="M3425 6910 c-3 -5 -1 -10 4 -10 6 0 11 5 11 10 0 6 -2 10 -4 10 -3 0
-8 -4 -11 -10z"/>
<path d="M776 6288 c5 -7 3 -8 -5 -4 -7 5 -19 0 -27 -10 -9 -11 -12 -12 -8 -4
4 9 -2 7 -13 -5 -11 -11 -19 -23 -17 -27 2 -3 -3 -14 -12 -22 -8 -9 -12 -16
-8 -16 4 0 -1 -7 -12 -15 -19 -15 -19 -15 1 -9 19 7 19 6 -2 -15 -14 -13 -20
-27 -16 -38 5 -12 3 -14 -7 -8 -10 6 -12 4 -7 -7 3 -9 0 -21 -6 -28 -9 -10 -9
-11 3 -5 13 8 13 6 2 -7 -8 -9 -15 -32 -17 -50 -2 -18 -4 -33 -5 -33 -8 0 -5
-53 3 -63 7 -9 6 -11 -6 -6 -16 6 -19 -18 -4 -32 4 -4 7 -12 7 -18 0 -6 -5 -4
-11 4 -7 11 -9 7 -5 -17 2 -18 0 -33 -5 -33 -6 0 -7 -5 -4 -10 4 -6 12 -7 18
-3 9 5 9 3 0 -8 -7 -9 -11 -25 -8 -37 2 -12 -1 -22 -6 -22 -6 0 -7 -5 -4 -10
4 -6 12 -7 18 -3 7 4 6 0 -2 -10 -10 -13 -11 -20 -2 -31 9 -10 9 -16 1 -21 -8
-5 -7 -11 2 -23 8 -10 9 -13 1 -9 -11 7 -13 -27 -2 -48 3 -6 4 -31 4 -57 -1
-27 2 -48 5 -48 4 0 5 -18 3 -41 -2 -28 0 -38 9 -33 7 4 8 3 4 -4 -13 -21 -16
-53 -4 -46 7 5 9 2 5 -9 -3 -9 -1 -17 6 -20 8 -2 8 -5 0 -10 -6 -4 -19 0 -27
9 -9 8 -16 13 -16 10 0 -3 -16 6 -36 19 -20 14 -42 25 -48 25 -6 0 -4 -5 4
-10 9 -6 10 -10 3 -10 -6 0 -15 4 -18 10 -3 5 -15 15 -27 21 -16 9 -19 8 -12
-3 6 -10 5 -11 -8 -1 -8 7 -27 14 -42 15 -14 1 -26 5 -26 9 0 8 -31 9 -50 1
-8 -3 -22 -7 -30 -8 -46 -8 -66 -15 -76 -29 -6 -8 -14 -12 -17 -8 -4 3 -7 -1
-7 -11 0 -9 -4 -14 -10 -11 -5 3 -10 1 -10 -4 0 -6 -8 -19 -17 -29 -32 -33
-44 -60 -30 -65 7 -3 4 -6 -7 -6 -15 -1 -17 -7 -14 -36 2 -19 1 -35 -4 -35 -4
0 -4 -7 -1 -17 5 -11 3 -14 -6 -8 -10 6 -11 3 -2 -12 7 -14 7 -23 -1 -31 -8
-8 -7 -13 5 -18 12 -4 14 -11 7 -23 -6 -12 -5 -24 5 -38 8 -11 11 -23 8 -27
-3 -3 -2 -6 3 -6 5 0 10 -9 11 -21 1 -11 12 -29 24 -40 12 -10 19 -19 14 -19
-4 0 -2 -6 4 -13 6 -8 8 -17 4 -21 -4 -4 1 -4 11 0 14 5 17 4 12 -4 -4 -7 -2
-12 4 -12 6 0 8 -5 4 -12 -5 -7 -3 -8 5 -4 8 5 14 0 18 -14 4 -14 11 -19 22
-15 8 3 12 3 9 -1 -8 -7 37 -54 52 -54 6 0 9 -4 5 -9 -3 -6 4 -8 15 -6 11 2
18 0 16 -4 -7 -11 28 -38 46 -35 11 1 15 -3 11 -14 -5 -11 -2 -14 9 -9 10 3
19 0 22 -9 3 -8 15 -14 26 -14 12 0 18 -4 15 -10 -3 -5 3 -10 14 -10 10 0 22
-6 24 -12 4 -9 6 -9 6 2 1 10 6 7 17 -9 10 -14 23 -21 35 -18 10 3 20 -1 23
-9 3 -8 14 -14 25 -14 20 0 73 -24 67 -31 -2 -2 10 -5 27 -5 17 -1 33 -6 35
-13 2 -6 14 -11 27 -11 13 0 26 -4 30 -9 5 -9 13 -11 63 -12 12 0 22 -5 22
-11 0 -6 9 -8 20 -5 11 3 23 1 26 -4 3 -5 10 -6 16 -3 6 4 14 0 19 -7 7 -12 9
-11 9 1 0 11 2 12 8 3 4 -7 27 -14 50 -15 23 -2 42 -6 42 -10 0 -4 7 -5 15 -2
8 4 15 1 15 -6 0 -9 4 -9 13 -2 6 5 20 7 30 3 23 -9 98 -1 92 9 -3 4 2 11 11
14 8 3 12 11 9 16 -4 6 -1 9 5 8 8 -2 13 13 14 39 1 23 -1 41 -4 41 -20 -2
-30 4 -30 17 0 10 -10 15 -34 15 -19 0 -38 5 -42 11 -3 6 -15 9 -25 6 -11 -3
-19 -1 -19 4 0 4 -7 5 -17 2 -12 -5 -14 -3 -8 8 8 12 6 12 -9 0 -13 -11 -20
-11 -28 -3 -7 7 -22 12 -35 12 -13 0 -23 5 -23 11 0 6 -9 9 -20 6 -11 -3 -22
-1 -25 4 -3 4 -13 5 -22 2 -11 -4 -14 -3 -9 6 5 8 3 11 -5 10 -8 -1 -27 3 -42
9 -16 7 -33 12 -38 12 -6 0 -29 9 -51 20 -23 11 -52 20 -65 20 -16 0 -22 4
-17 12 5 8 2 9 -10 5 -10 -4 -19 -1 -22 8 -3 7 -11 12 -19 9 -7 -3 -19 1 -26
8 -8 7 -21 14 -29 16 -8 2 -16 8 -18 13 -2 5 -12 9 -22 9 -10 0 -21 8 -24 17
-6 14 -9 15 -15 4 -6 -10 -10 -9 -15 4 -3 9 -10 13 -16 10 -5 -3 -10 1 -10 9
0 9 -3 15 -7 15 -29 -5 -43 3 -43 24 0 14 -3 18 -8 10 -5 -9 -15 -4 -32 17
-14 17 -31 30 -38 30 -7 0 -11 4 -7 9 3 5 -3 16 -12 23 -10 7 -19 20 -21 28
-2 8 -9 18 -15 22 -7 4 -7 8 -2 8 6 0 4 4 -3 9 -17 11 -26 105 -9 94 8 -4 7
-1 -2 10 -11 14 -11 18 3 23 9 3 13 10 11 15 -7 10 30 20 63 17 12 -1 22 -6
22 -10 0 -4 11 -8 25 -8 14 0 25 -3 25 -8 0 -4 9 -13 21 -20 12 -8 18 -9 14
-3 -3 6 -1 11 4 11 6 0 11 -4 11 -10 0 -5 7 -10 16 -10 9 0 12 -5 8 -12 -4 -6
-3 -8 4 -4 6 3 22 -5 36 -19 14 -14 29 -25 35 -25 5 0 11 -3 13 -7 2 -5 18
-20 36 -35 19 -16 30 -28 26 -28 -4 0 4 -10 18 -22 14 -13 28 -31 31 -41 4
-10 12 -15 17 -12 6 4 10 3 9 -2 -3 -19 2 -34 10 -28 5 3 12 1 16 -5 4 -6 11
-8 16 -5 5 4 9 1 9 -4 0 -6 7 -11 15 -11 8 0 15 6 15 13 0 8 4 7 10 -3 6 -10
10 -11 10 -3 0 7 3 12 8 12 20 -3 32 3 32 17 0 8 4 13 9 10 14 -9 23 47 12 76
-5 14 -7 29 -4 32 4 3 1 6 -6 6 -8 0 -11 7 -7 15 3 8 1 15 -5 15 -6 0 -9 7 -6
15 4 8 1 17 -5 21 -7 5 -8 2 -3 -6 5 -9 4 -11 -4 -6 -9 6 -9 11 -1 21 8 9 8
15 0 20 -5 3 -10 15 -10 26 0 10 -4 19 -9 19 -5 0 -7 14 -6 30 1 17 -2 33 -8
37 -6 4 -7 1 -2 -7 5 -9 4 -11 -4 -6 -9 6 -9 11 -1 21 8 10 8 15 0 20 -6 4 -8
16 -4 27 4 14 2 18 -5 14 -6 -4 -11 0 -11 9 0 10 5 13 12 9 7 -5 8 -3 2 7 -12
20 -15 36 -17 101 -1 31 -5 54 -10 51 -5 -3 -6 4 -2 17 5 17 4 21 -5 15 -9 -6
-11 -4 -4 6 11 19 13 58 2 65 -4 3 -4 14 2 24 6 12 7 21 0 25 -6 3 -6 15 0 30
6 16 6 27 -1 31 -7 4 -6 10 1 19 7 9 8 15 1 19 -7 5 -7 15 -1 31 6 17 6 25 -1
25 -6 0 -7 5 -3 12 12 19 12 72 1 86 -7 9 -6 11 6 6 12 -4 14 -1 10 15 -3 12
0 28 7 36 8 10 9 15 2 15 -6 0 -9 7 -6 15 4 8 9 13 14 10 4 -2 6 7 4 20 -1 14
2 25 7 25 5 0 8 3 8 8 -1 4 0 12 1 17 1 6 3 17 4 25 0 8 7 14 14 12 8 -1 11 2
7 8 -4 6 -2 17 4 24 6 7 8 22 4 31 -5 13 -3 16 6 10 10 -6 11 -2 6 16 -4 13
-8 28 -9 34 -3 24 -44 52 -79 53 -26 1 -36 -2 -31 -10z"/>
<path d="M4120 6033 c0 -7 -8 -12 -17 -11 -41 3 -61 -3 -87 -27 -14 -13 -26
-21 -26 -18 0 4 -10 -3 -23 -15 -13 -12 -27 -19 -32 -15 -4 5 -6 4 -3 -2 4 -9
-27 -48 -34 -43 -8 4 -48 -29 -48 -39 0 -7 -5 -13 -10 -13 -7 0 -7 -7 1 -21 6
-12 7 -19 2 -16 -6 4 -5 -9 1 -28 6 -19 15 -35 19 -35 5 0 6 -4 2 -9 -3 -5 -1
-12 5 -16 6 -4 8 -11 5 -16 -4 -5 -2 -9 3 -9 10 0 32 -45 36 -75 1 -9 8 -20
15 -25 8 -4 10 -13 7 -19 -4 -6 -1 -14 8 -17 8 -3 13 -14 11 -25 -2 -11 0 -17
4 -14 5 2 15 -10 22 -28 7 -17 18 -35 23 -39 7 -5 4 -8 -7 -8 -11 0 -16 -5
-12 -12 4 -7 -1 -4 -9 6 -9 11 -16 15 -16 9 0 -8 -34 -11 -102 -11 -57 0 -107
-1 -113 -2 -5 -1 -41 -1 -80 -1 -38 -1 -76 -6 -84 -12 -12 -9 -13 -9 -7 1 4 6
2 12 -3 12 -6 0 -11 -6 -11 -12 0 -9 -4 -8 -10 2 -9 13 -11 13 -21 0 -8 -12
-12 -12 -16 -2 -4 10 -8 10 -21 0 -13 -11 -14 -11 -7 2 7 13 6 13 -7 2 -13
-10 -17 -10 -21 0 -4 10 -6 10 -6 1 -1 -7 -8 -13 -17 -13 -9 0 -13 5 -9 13 4
6 1 5 -7 -4 -9 -11 -20 -14 -33 -9 -11 4 -24 5 -30 2 -5 -3 -30 -7 -55 -7 -25
-1 -52 -5 -59 -10 -10 -6 -12 -4 -6 4 6 10 3 11 -12 2 -11 -6 -23 -7 -27 -3
-4 3 -11 0 -16 -8 -7 -11 -10 -12 -10 -2 0 7 -4 11 -9 8 -5 -4 -27 -7 -50 -8
-22 -1 -38 -4 -36 -8 2 -4 -2 -7 -10 -7 -8 0 -12 5 -8 10 3 5 -2 5 -13 0 -11
-5 -37 -11 -59 -12 -21 -1 -44 -6 -50 -11 -7 -6 -15 -7 -19 -3 -11 12 -37 12
-29 0 4 -7 0 -8 -12 -3 -11 4 -22 2 -27 -6 -6 -10 -8 -10 -8 1 0 11 -3 11 -15
1 -8 -7 -15 -9 -15 -5 0 4 -8 1 -17 -6 -14 -12 -15 -12 -9 -1 7 12 4 12 -14 2
-12 -6 -28 -9 -36 -6 -8 3 -14 1 -14 -5 0 -6 -7 -6 -20 1 -16 8 -20 8 -18 -2
2 -9 -12 -13 -48 -13 -34 0 -50 -4 -47 -11 2 -7 -6 -11 -19 -10 -13 1 -32 -5
-42 -13 -11 -9 -16 -11 -13 -4 5 8 0 11 -12 10 -11 0 -17 -5 -15 -9 3 -4 -5
-8 -18 -8 -13 0 -30 -6 -37 -12 -11 -11 -12 -10 -6 2 6 12 5 13 -6 3 -7 -7
-22 -13 -34 -13 -12 0 -27 -6 -34 -12 -11 -11 -12 -10 -6 2 6 10 1 8 -13 -4
-17 -14 -22 -16 -22 -5 0 11 -2 11 -10 -1 -5 -8 -17 -16 -27 -17 -10 -2 -27
-4 -38 -6 -11 -2 -34 -10 -51 -18 -17 -9 -42 -15 -57 -15 -17 1 -23 -2 -17 -9
8 -10 -7 -14 -57 -18 -7 0 -13 -5 -13 -10 0 -5 -7 -6 -16 -3 -8 3 -13 2 -10
-3 3 -5 -1 -12 -10 -15 -9 -4 -13 -2 -8 5 3 6 -5 4 -18 -5 -14 -9 -28 -13 -33
-9 -4 5 -5 2 -1 -4 6 -12 -11 -18 -36 -14 -5 0 -8 -4 -8 -10 0 -5 -4 -8 -9 -4
-5 3 -17 -2 -25 -11 -9 -8 -16 -12 -16 -9 0 4 -12 0 -26 -10 -18 -11 -24 -13
-19 -4 5 8 -1 6 -12 -3 -11 -10 -25 -18 -31 -18 -7 0 -12 -5 -12 -10 0 -6 -3
-9 -7 -8 -14 4 -53 -13 -53 -23 0 -5 -8 -9 -18 -9 -22 0 -65 -47 -57 -60 4 -6
1 -10 -4 -10 -6 0 -11 -5 -11 -11 0 -5 6 -7 13 -3 9 6 9 4 1 -7 -6 -8 -10 -22
-9 -31 2 -10 -1 -18 -7 -18 -7 0 -6 -5 1 -14 9 -10 9 -16 1 -21 -8 -5 -8 -11
1 -21 9 -11 9 -14 -1 -14 -10 0 -10 -3 0 -15 10 -12 10 -15 -1 -15 -9 0 -10
-3 -3 -8 6 -4 13 -15 17 -25 4 -10 11 -15 17 -12 5 3 10 1 10 -4 0 -6 13 -11
28 -11 15 0 34 -6 41 -12 11 -10 13 -10 7 0 -4 6 -2 12 3 12 6 0 11 -6 11 -12
0 -10 3 -9 9 1 6 9 10 10 16 2 5 -9 11 -9 23 1 12 10 14 10 8 1 -4 -7 -3 -13
3 -13 5 0 13 5 16 10 5 8 11 8 19 1 7 -6 27 -9 45 -7 17 2 33 0 36 -4 2 -4 23
-5 45 -3 25 3 48 -1 58 -9 11 -9 14 -10 8 -1 -5 9 0 12 18 11 15 -1 26 -5 26
-8 0 -3 11 -6 26 -6 23 -2 24 -1 7 13 -16 13 -15 13 8 0 17 -10 31 -12 41 -6
10 6 19 6 23 -1 3 -5 25 -9 48 -10 54 0 152 -7 152 -9 0 -9 42 -8 52 1 10 8
13 7 13 -3 0 -12 2 -12 9 0 7 11 9 11 14 0 4 -12 7 -11 16 1 7 10 11 11 11 3
0 -7 5 -13 11 -13 5 0 7 5 3 12 -5 7 -3 8 7 2 19 -12 32 -13 116 -16 44 -1 70
-5 66 -11 -4 -6 -1 -7 8 -1 21 13 39 14 39 2 0 -6 6 -5 15 2 12 10 15 10 15 0
0 -10 3 -10 15 0 9 7 15 8 15 2 0 -5 7 -13 16 -16 14 -5 15 -4 4 9 -11 13 -10
14 6 8 10 -3 22 -11 26 -17 5 -7 8 -7 8 1 0 11 23 12 50 3 3 -1 25 -2 50 -2
25 0 51 -5 59 -11 12 -9 13 -9 7 1 -5 9 -1 11 16 8 13 -3 23 -5 23 -6 0 -1 12
-3 27 -4 15 -2 25 0 23 3 -2 4 5 7 15 7 10 0 16 -4 14 -8 -8 -13 11 -9 25 5
10 8 12 8 7 0 -4 -7 0 -12 11 -11 69 2 174 -6 179 -13 3 -5 13 -5 23 1 12 6
22 5 28 -1 8 -8 17 -8 31 0 10 6 22 8 24 5 3 -3 18 -7 33 -10 20 -3 25 -1 19
8 -6 10 -5 10 7 1 8 -6 39 -12 69 -14 30 -1 58 -7 62 -13 5 -7 8 -7 8 2 0 6 7
12 15 12 8 0 15 -6 15 -12 0 -8 3 -9 8 -3 8 12 37 13 48 2 4 -4 12 -7 18 -7 6
0 4 5 -4 10 -12 7 -10 9 7 7 12 0 19 -5 16 -10 -7 -12 30 -4 39 8 5 6 8 6 8
-1 0 -11 33 -14 158 -17 23 0 42 -6 42 -11 0 -6 4 -5 9 3 6 9 11 10 15 2 5 -8
13 -8 28 0 14 8 23 8 31 0 7 -7 16 -7 30 0 14 8 18 8 13 0 -5 -7 1 -11 14 -11
14 0 19 4 14 13 -6 9 -5 9 8 0 8 -7 43 -13 76 -14 38 -1 62 -6 62 -13 0 -6 4
-5 9 3 8 13 12 13 27 0 11 -9 15 -9 10 -1 -4 6 -2 12 3 12 6 0 11 -6 11 -12 0
-9 4 -8 10 2 9 13 10 13 10 0 0 -13 1 -13 10 0 8 12 10 12 10 1 0 -11 3 -11
17 0 9 8 14 9 10 3 -4 -8 2 -11 18 -10 14 0 25 6 25 11 0 6 4 4 9 -4 5 -7 15
-11 22 -9 8 3 24 1 36 -3 14 -5 25 -4 29 2 4 8 9 7 15 -2 8 -12 10 -12 18 0 5
8 11 9 15 3 3 -6 18 -9 32 -6 14 3 23 1 21 -4 -3 -4 3 -8 13 -8 10 0 16 4 14
8 -3 4 1 8 10 8 8 0 16 -6 19 -12 3 -10 7 -10 20 1 14 11 17 11 17 0 0 -12 2
-12 9 -1 7 11 9 11 14 -2 4 -9 13 -13 22 -10 8 3 12 11 8 18 -4 6 1 5 10 -2 9
-8 21 -11 26 -8 5 4 12 3 14 -1 3 -5 29 -8 59 -7 30 1 56 -3 60 -10 6 -8 8 -8
8 1 0 12 24 12 36 0 4 -4 13 -2 21 4 9 9 13 8 13 0 0 -6 5 -11 11 -11 5 0 7 6
3 13 -6 9 -5 9 7 0 12 -10 18 -10 29 0 8 7 10 7 7 1 -5 -8 10 -12 46 -13 87
-2 121 -6 136 -15 10 -6 12 -6 7 2 -5 8 1 12 14 12 13 0 19 -4 14 -11 -4 -7 1
-7 16 1 18 10 24 9 32 -1 7 -11 11 -11 15 -1 2 6 9 12 14 12 6 0 7 -6 3 -12
-5 -8 0 -7 11 2 10 8 16 10 12 3 -5 -8 2 -11 24 -9 16 1 52 -1 79 -4 26 -3 58
-3 70 2 12 4 19 4 16 -1 -3 -5 1 -12 10 -15 9 -3 12 -2 9 5 -9 13 27 8 37 -6
5 -6 8 -5 8 3 0 8 5 10 12 6 17 -11 50 -10 67 1 9 5 12 4 8 -2 -4 -6 26 -10
75 -11 47 -1 88 -8 97 -15 12 -9 13 -9 7 1 -10 17 12 15 30 -2 19 -20 19 -21
-20 -21 -19 0 -32 3 -30 7 3 4 1 8 -5 8 -5 0 -12 -6 -14 -12 -4 -10 -6 -9 -6
1 -1 11 -4 11 -16 1 -12 -10 -15 -10 -15 1 0 11 -2 11 -10 -1 -6 -10 -10 -11
-10 -2 0 6 -5 12 -11 12 -5 0 -8 -4 -5 -8 3 -5 -1 -9 -9 -9 -8 0 -15 5 -15 10
0 5 -7 4 -15 -3 -12 -10 -15 -10 -15 1 0 11 -2 11 -10 -1 -9 -13 -10 -13 -10
0 0 13 -1 13 -10 0 -8 -13 -10 -13 -10 0 0 11 -3 11 -12 2 -9 -9 -14 -7 -25 6
-12 16 -12 15 -6 -3 6 -18 5 -18 -10 -6 -9 7 -17 9 -17 3 0 -12 -33 -10 -42 3
-5 6 -8 4 -8 -5 0 -13 -1 -13 -10 0 -9 13 -10 13 -10 0 0 -13 -1 -13 -10 0 -9
13 -10 13 -10 0 0 -13 -1 -13 -10 0 -9 13 -10 13 -10 0 0 -13 -1 -13 -10 0 -9
13 -10 13 -10 0 0 -13 -1 -13 -10 0 -9 13 -11 13 -20 0 -9 -13 -10 -13 -10 0
0 13 -1 13 -10 0 -9 -13 -11 -13 -20 0 -9 13 -10 13 -10 0 0 -13 -1 -13 -10 0
-9 13 -10 13 -10 0 0 -13 -1 -13 -10 0 -9 13 -10 13 -10 0 0 -13 -1 -13 -10 0
-9 13 -11 13 -20 0 -9 -13 -10 -13 -10 0 0 13 -1 13 -10 0 -9 -13 -11 -13 -20
0 -9 13 -10 13 -10 0 0 -13 -1 -13 -10 0 -9 13 -10 13 -10 0 0 -13 -1 -13 -10
0 -9 13 -10 13 -10 0 0 -13 -1 -13 -11 0 -8 12 -12 12 -16 2 -4 -10 -8 -10
-21 0 -12 10 -14 10 -8 1 4 -7 2 -13 -3 -13 -6 0 -11 6 -11 13 0 8 -4 7 -10
-3 -9 -13 -10 -13 -10 0 0 13 -1 13 -10 0 -9 -13 -10 -13 -10 0 0 12 -2 13 -9
1 -7 -11 -9 -11 -14 0 -4 12 -7 11 -16 -1 -10 -13 -11 -13 -11 0 0 13 -1 13
-10 0 -9 -13 -11 -13 -20 0 -9 13 -10 13 -10 0 0 -13 -1 -13 -10 0 -9 13 -11
13 -20 0 -8 -12 -10 -12 -10 -1 0 11 -3 11 -15 1 -12 -10 -15 -10 -15 1 0 11
-2 11 -10 -1 -9 -13 -10 -13 -10 0 0 9 -3 11 -8 5 -9 -13 -62 -15 -62 -2 0 5
-7 4 -15 -3 -12 -10 -15 -10 -15 1 0 11 -2 11 -10 -1 -9 -13 -10 -13 -10 0 0
13 -1 13 -10 0 -8 -12 -10 -12 -10 -1 0 11 -3 11 -16 0 -13 -10 -17 -10 -25 2
-7 12 -9 12 -9 -1 0 -13 -1 -13 -10 0 -9 13 -11 13 -20 0 -9 -13 -10 -13 -10
0 0 13 -1 13 -10 0 -9 -13 -11 -13 -20 0 -9 13 -10 13 -10 0 0 -13 -1 -13 -10
0 -9 13 -10 13 -10 0 0 -13 -1 -13 -10 0 -9 13 -10 13 -10 0 0 -13 -1 -13 -10
0 -9 13 -11 13 -20 0 -9 -13 -10 -13 -10 0 0 13 -1 13 -10 0 -9 -13 -11 -13
-20 0 -9 13 -10 13 -10 0 0 -13 -1 -13 -10 0 -9 13 -10 13 -10 0 0 -13 -1 -13
-10 0 -9 13 -10 13 -10 0 0 -13 -1 -13 -10 0 -9 13 -11 13 -20 0 -9 -13 -10
-13 -10 0 0 13 -1 13 -10 0 -9 -13 -11 -13 -20 0 -9 13 -10 13 -10 0 0 -13 -1
-13 -10 0 -9 13 -10 13 -10 0 0 -13 -1 -13 -10 0 -9 13 -10 13 -10 0 0 -13 -1
-13 -10 0 -9 13 -10 13 -10 0 0 -13 -1 -13 -10 0 -9 13 -10 13 -10 0 0 -13 -1
-13 -10 0 -9 13 -10 13 -10 0 0 -13 -1 -13 -10 0 -9 13 -10 13 -10 0 0 -13 -1
-13 -10 0 -9 13 -10 13 -10 0 0 -13 -1 -13 -10 0 -9 13 -10 13 -10 0 0 -13 -1
-13 -10 0 -9 13 -10 13 -10 0 0 -13 -1 -13 -10 0 -9 13 -10 13 -10 0 0 -13 -1
-13 -10 0 -9 13 -10 13 -10 0 0 -13 -1 -13 -10 0 -9 13 -10 13 -10 0 0 -13 -1
-13 -10 0 -9 13 -10 13 -10 0 0 -13 -1 -13 -10 0 -9 13 -10 13 -10 0 0 -13 -1
-13 -10 0 -9 13 -10 13 -10 0 0 -13 -1 -13 -10 0 -9 13 -10 13 -10 0 0 -13 -1
-13 -10 0 -9 13 -10 13 -10 0 0 -13 -1 -13 -10 0 -9 13 -10 13 -10 0 0 -13 -1
-13 -10 0 -9 13 -10 13 -10 0 0 -13 -1 -13 -10 0 -9 13 -10 13 -10 0 0 -13 -1
-13 -10 0 -9 13 -10 13 -10 0 0 -13 -1 -13 -10 0 -9 13 -10 13 -10 0 0 -13 -1
-13 -10 0 -9 13 -10 13 -10 0 0 -13 -1 -13 -10 0 -9 13 -10 13 -10 0 0 -13 -1
-13 -10 0 -9 13 -10 13 -10 0 0 -13 -1 -13 -10 0 -9 13 -10 13 -10 0 0 -13 -1
-13 -10 0 -9 13 -10 13 -10 0 0 -13 -1 -13 -10 0 -9 13 -10 13 -10 0 0 -13 -1
-13 -10 0 -9 13 -10 13 -10 0 0 -13 -1 -13 -10 0 -9 13 -10 13 -10 0 0 -13 -1
-13 -10 0 -9 13 -10 13 -10 0 0 -13 -1 -13 -10 0 -9 13 -10 13 -10 0 0 -13 -1
-13 -10 0 -9 13 -10 13 -10 0 0 -13 -1 -13 -10 0 -9 13 -10 13 -10 0 0 -13 -1
-13 -10 0 -9 13 -10 13 -10 0 0 -13 -1 -13 -10 0 -9 13 -10 13 -10 0 0 -13 -1
-13 -10 0 -9 13 -10 13 -10 0 0 -13 -1 -13 -10 0 -9 13 -10 13 -10 0 0 -13 -1
-13 -10 0 -9 13 -11 13 -20 0 -9 -13 -10 -13 -10 0 0 13 -1 13 -10 0 -9 -13
-11 -13 -20 0 -9 13 -10 13 -10 0 0 -13 -1 -13 -10 0 -9 13 -10 13 -10 0 0
-13 -1 -13 -10 0 -9 13 -10 13 -10 0 0 -13 -1 -13 -10 0 -9 13 -11 13 -20 0
-9 -13 -10 -13 -10 0 0 13 -1 13 -10 0 -9 -13 -11 -13 -20 0 -9 13 -10 13 -10
0 0 -13 -1 -13 -10 0 -9 13 -10 13 -10 0 0 -13 -1 -13 -10 0 -9 13 -10 13 -10
0 0 -13 -1 -13 -10 0 -9 13 -11 13 -20 0 -9 -13 -10 -13 -10 0 0 13 -1 13 -10
0 -9 -13 -11 -13 -20 0 -9 13 -10 13 -10 0 0 -13 -1 -13 -10 0 -9 13 -10 13
-10 0 0 -13 -1 -13 -10 0 -9 13 -10 13 -10 0 0 -13 -1 -13 -10 0 -9 13 -11 13
-20 0 -9 -13 -10 -13 -10 0 0 13 -1 13 -10 0 -9 -13 -11 -13 -20 0 -9 13 -10
13 -10 0 0 -13 -1 -13 -10 0 -9 13 -10 13 -10 0 0 -13 -1 -13 -10 0 -9 13 -10
13 -10 0 0 -13 -1 -13 -10 0 -9 13 -11 13 -20 0 -9 -13 -10 -13 -10 0 0 13 -1
13 -10 0 -9 -13 -11 -13 -20 0 -9 13 -10 13 -10 0 0 -13 -1 -13 -10 0 -9 13
-10 13 -10 0 0 -13 -1 -13 -10 0 -9 13 -10 13 -10 0 0 -13 -1 -13 -10 0 -9 13
-11 13 -20 0 -9 -13 -10 -13 -10 0 0 13 -1 13 -10 0 -9 -13 -11 -13 -20 0 -9
13 -10 13 -10 0 0 -13 -1 -13 -10 0 -9 13 -10 13 -10 0 0 -13 -1 -13 -10 0 -9
13 -10 13 -10 0 0 -13 -1 -13 -10 0 -9 13 -11 13 -20 0 -9 -13 -10 -13 -10 0
0 13 -1 13 -10 0 -9 -13 -11 -13 -20 0 -9 13 -10 13 -10 0 0 -13 -1 -13 -10 0
-9 13 -10 13 -10 0 0 -13 -1 -13 -10 0 -9 13 -10 13 -10 0 0 -13 -1 -13 -10 0
-9 13 -11 13 -20 0 -9 -13 -10 -13 -10 0 0 13 -1 13 -10 0 -9 -13 -11 -13 -20
0 -9 13 -10 13 -10 0 0 -13 -1 -13 -10 0 -9 13 -10 13 -10 0 0 -13 -1 -13 -10
0 -9 13 -10 13 -10 0 0 -13 -1 -13 -10 0 -9 13 -11 13 -20 0 -9 -13 -10 -13
-10 0 0 13 -1 13 -10 0 -9 -13 -11 -13 -20 0 -9 13 -10 13 -10 0 0 -13 -1 -13
-10 0 -9 13 -10 13 -10 0 0 -13 -1 -13 -10 0 -9 13 -10 13 -10 0 0 -13 -1 -13
-10 0 -9 13 -11 13 -20 0 -9 -13 -10 -13 -10 0 0 13 -1 13 -10 0 -9 -13 -11
-13 -20 0 -9 13 -10 13 -10 0 0 -13 -1 -13 -10 0 -9 13 -10 13 -10 0 0 -13 -1
-13 -10 0 -9 13 -10 13 -10 0 0 -13 -1 -13 -10 0 -9 13 -11 13 -20 0 -9 -13
-10 -13 -10 0 0 13 -1 13 -10 0 -9 -13 -11 -13 -20 0 -9 13 -10 13 -10 0 0
-13 -1 -13 -10 0 -9 13 -10 13 -10 0 0 -13 -1 -13 -10 0 -9 13 -10 13 -10 0 0
-13 -1 -13 -10 0 -9 13 -11 13 -20 0 -9 -13 -10 -13 -10 0 0 13 -1 13 -10 0
-9 -13 -11 -13 -20 0 -9 13 -10 13 -10 0 0 -13 -1 -13 -10 0 -9 13 -10 13 -10
0 0 -13 -1 -13 -10 0 -9 13 -10 13 -10 0 0 -13 -1 -13 -10 0 -9 13 -11 13 -20
0 -9 -13 -10 -13 -10 0 0 13 -1 13 -10 0 -9 -13 -11 -13 -20 0 -9 13 -10 13
-10 0 0 -13 -1 -13 -10 0 -9 13 -10 13 -10 0 0 -13 -1 -13 -10 0 -9 13 -10 13
-10 0 0 -13 -1 -13 -10 0 -9 13 -11 13 -20 0 -9 -13 -10 -13 -10 0 0 13 -1 13
-10 0 -9 -13 -11 -13 -20 0 -9 13 -10 13 -10 0 0 -13 -1 -13 -10 0 -9 13 -10
13 -10 0 0 -13 -1 -13 -10 0 -9 13 -10 13 -10 0 0 -13 -1 -13 -10 0 -9 13 -11
13 -20 0 -9 -13 -10 -13 -10 0 0 13 -1 13 -10 0 -9 -13 -11 -13 -20 0 -9 13
-10 13 -10 0 0 -13 -1 -13 -10 0 -9 13 -10 13 -10 0 0 -13 -1 -13 -10 0 -9 13
-10 13 -10 0 0 -13 -1 -13 -10 0 -9 13 -11 13 -20 0 -9 -13 -10 -13 -10 0 0
13 -1 13 -10 0 -9 -13 -10 -13 -10 0 0 13 -1 13 -10 0 -9 -13 -10 -13 -10 0 0
13 -1 13 -10 0 -9 -13 -11 -13 -20 0 -9 13 -10 13 -10 0 0 -13 -1 -13 -10 0
-9 13 -10 13 -10 0 0 -13 -1 -13 -10 0 -9 13 -10 13 -10 0 0 -13 -1 -13 -10 0
-9 13 -11 13 -20 0 -9 -13 -10 -13 -10 0 0 13 -1 13 -10 0 -9 -13 -11 -13 -20
0 -9 13 -10 13 -10 0 0 -13 -1 -13 -10 0 -9 13 -10 13 -10 0 0 -13 -1 -13 -10
0 -9 13 -10 13 -10 0 0 -13 -1 -13 -10 0 -9 13 -11 13 -20 0 -9 -13 -10 -13
-10 0 0 13 -1 13 -10 0 -9 -13 -11 -13 -20 0 -9 13 -10 13 -10 0 0 -13 -1 -13
-10 0 -9 13 -10 13 -10 0 0 -13 -1 -13 -10 0 -9 13 -10 13 -10 0 0 -13 -1 -13
-10 0 -9 13 -11 13 -20 0 -9 -13 -10 -13 -10 0 0 13 -1 13 -10 0 -9 -13 -11
-13 -20 0 -9 13 -10 13 -10 0 0 -13 -1 -13 -10 0 -9 13 -10 13 -10 0 0 -13 -1
-13 -10 0 -9 13 -10 13 -10 0 0 -13 -1 -13 -10 0 -9 13 -11 13 -20 0 -9 -13
-10 -13 -10 0 0 13 -1 13 -10 0 -9 -13 -11 -13 -20 0 -9 13 -10 13 -10 0 0
-13 -1 -13 -10 0 -9 13 -11 13 -20 0 -8 -12 -10 -12 -10 -1 0 11 -3 11 -15 1
-12 -10 -15 -10 -15 1 0 12 -2 12 -9 0 -7 -11 -9 -11 -14 0 -4 12 -7 11 -16
-1 -10 -13 -11 -13 -11 0 0 13 -1 13 -10 0 -8 -12 -11 -13 -19 -1 -7 11 -9 11
-14 0 -4 -10 -6 -10 -6 -1 -1 6 -6 12 -12 12 -5 0 -7 -5 -4 -10 8 -13 -17 -8
-27 5 -5 6 -12 4 -18 -5 -9 -13 -10 -13 -10 0 0 11 -2 12 -8 3 -4 -7 -24 -13
-45 -15 -27 -1 -36 -6 -32 -16 2 -7 1 -10 -4 -7 -5 3 -12 1 -16 -5 -4 -6 -12
-7 -18 -4 -7 4 -9 4 -5 0 4 -5 -5 -19 -19 -32 -14 -13 -23 -24 -19 -24 3 0 0
-15 -8 -34 -8 -19 -10 -39 -6 -47 5 -7 4 -21 -1 -31 -7 -12 -6 -18 1 -18 6 0
8 -4 5 -10 -3 -5 -1 -10 4 -10 6 0 10 -3 10 -7 -3 -19 2 -33 18 -49 21 -20 28
-51 9 -35 -7 6 -17 7 -21 3 -5 -4 -5 -1 -1 6 4 7 0 15 -11 19 -10 3 -26 15
-36 27 -15 19 -17 19 -10 2 4 -13 3 -17 -5 -12 -7 4 -12 14 -12 22 0 8 -5 12
-11 9 -6 -4 -17 1 -25 11 -9 11 -13 13 -9 7 9 -18 -10 -16 -29 2 -8 8 -26 16
-40 17 -14 1 -26 6 -26 10 0 4 -9 8 -20 8 -11 0 -20 6 -20 13 0 8 -4 7 -10 -3
-6 -10 -10 -11 -10 -2 0 7 -15 12 -40 12 -22 0 -40 4 -40 9 0 11 -19 9 -39 -3
-10 -6 -12 -5 -7 2 4 8 -7 11 -36 12 -72 1 -82 2 -96 13 -10 8 -16 7 -24 -4
-7 -11 -11 -11 -15 -1 -4 10 -8 10 -19 1 -8 -6 -14 -7 -14 -2 0 5 -7 10 -15
10 -8 0 -15 -5 -15 -11 0 -6 -4 -5 -9 3 -5 8 -16 11 -25 8 -9 -4 -16 -1 -16 5
0 7 -4 7 -13 -1 -8 -6 -17 -8 -20 -4 -4 3 -13 0 -22 -7 -11 -9 -15 -9 -15 -1
0 8 -6 6 -16 -4 -14 -13 -19 -14 -25 -3 -6 9 -9 9 -9 1 0 -7 -16 -20 -35 -29
-19 -9 -35 -21 -35 -26 0 -5 -5 -6 -12 -2 -7 4 -8 3 -4 -5 4 -6 0 -14 -8 -17
-9 -3 -16 -12 -16 -20 0 -8 -5 -14 -11 -14 -5 0 -7 -4 -4 -10 3 -5 1 -10 -5
-10 -6 0 -8 -4 -5 -10 3 -5 1 -10 -5 -10 -7 0 -8 -6 0 -19 7 -14 7 -22 -2 -27
-6 -4 -8 -3 -4 4 3 6 2 13 -3 16 -5 3 -7 -8 -6 -24 1 -17 -1 -33 -6 -36 -4 -2
-4 -16 1 -29 5 -14 7 -25 4 -25 -4 0 -1 -6 5 -14 9 -11 9 -15 -1 -19 -9 -4 -8
-6 3 -6 11 -1 15 -9 14 -26 -2 -14 2 -23 8 -22 7 1 11 -4 10 -10 -2 -7 2 -13
8 -13 5 0 7 -4 4 -10 -3 -5 0 -10 8 -10 14 0 32 -27 29 -42 -1 -4 5 -5 13 -2
8 4 15 1 15 -5 0 -6 6 -10 13 -8 6 1 11 -4 9 -11 -1 -8 2 -11 8 -7 6 3 24 0
40 -9 17 -8 28 -10 25 -5 -4 5 -1 9 4 9 6 0 11 -4 11 -8 0 -8 69 -15 122 -14
10 1 20 -3 23 -9 4 -5 14 -5 27 2 16 8 23 8 30 -2 7 -11 11 -11 15 -1 2 6 10
9 16 5 7 -4 32 -9 57 -11 24 -2 47 -6 50 -10 3 -4 10 -8 15 -9 31 -5 42 -10
57 -26 9 -10 19 -18 22 -18 20 3 26 0 21 -9 -3 -5 0 -10 8 -10 8 0 22 -9 32
-20 10 -11 24 -20 32 -20 7 0 13 -6 13 -12 0 -7 13 -22 29 -33 17 -10 35 -30
40 -43 6 -13 16 -20 21 -17 6 3 10 1 10 -4 0 -27 20 -52 34 -43 5 3 7 -2 3
-11 -4 -12 -2 -14 10 -10 11 4 14 2 9 -5 -4 -7 3 -22 15 -34 12 -13 18 -17 14
-9 -5 10 -4 12 4 7 6 -4 9 -12 5 -17 -3 -6 2 -19 12 -29 39 -39 44 -48 31 -53
-7 -3 -4 -6 6 -6 9 -1 17 -6 17 -12 0 -5 4 -8 9 -4 6 3 6 -7 1 -26 -7 -24 -6
-30 4 -26 10 4 12 0 9 -14 -3 -11 -10 -16 -17 -12 -6 4 -5 -1 3 -10 11 -14 11
-20 0 -34 -8 -9 -9 -14 -3 -10 7 4 14 -2 17 -13 3 -11 1 -18 -4 -14 -13 8 -11
-10 4 -25 10 -11 9 -13 0 -7 -9 5 -13 0 -13 -14 0 -13 4 -19 12 -14 7 5 8 3 2
-7 -13 -21 -13 -102 0 -118 8 -11 8 -13 -2 -7 -8 5 -11 1 -8 -16 2 -13 -2 -29
-8 -37 -8 -11 -8 -13 1 -7 17 10 17 -16 1 -33 -11 -11 -10 -12 1 -6 11 6 13 3
9 -12 -3 -11 -1 -27 3 -36 7 -11 4 -19 -7 -25 -14 -8 -15 -10 -1 -15 12 -5 14
-13 7 -36 -6 -22 -5 -31 6 -35 11 -4 12 -11 6 -23 -6 -10 -6 -26 -1 -40 5 -13
5 -23 1 -23 -4 0 -7 -12 -6 -27 1 -16 3 -28 4 -28 2 0 3 -12 4 -26 1 -15 7
-34 14 -42 7 -8 9 -18 5 -20 -10 -7 -10 -48 1 -65 4 -7 2 -12 -4 -12 -6 0 -8
-5 -5 -10 4 -6 10 -8 15 -5 5 3 5 -8 0 -25 -6 -20 -5 -30 2 -30 5 0 8 -6 5
-14 -3 -7 0 -19 6 -25 8 -8 7 -11 -3 -11 -9 0 -8 -6 6 -22 12 -13 13 -18 4
-13 -12 7 -13 6 -3 -6 10 -12 10 -18 0 -29 -7 -8 -8 -10 -1 -7 7 4 14 -3 16
-18 3 -13 0 -26 -6 -29 -6 -2 -2 -5 9 -5 17 -1 17 -3 5 -11 -12 -8 -12 -10 -1
-10 9 0 12 -8 9 -25 -3 -14 -1 -25 3 -25 5 0 6 -7 3 -15 -4 -10 -1 -14 7 -12
8 2 11 2 7 0 -11 -7 -10 -25 5 -53 7 -14 12 -35 11 -48 -1 -12 2 -22 6 -22 4
0 7 -6 8 -12 6 -45 10 -58 21 -71 10 -13 9 -16 -6 -20 -17 -4 -17 -5 0 -6 15
-1 22 -18 18 -43 0 -5 5 -8 12 -8 8 0 7 -4 -3 -10 -10 -6 -11 -10 -2 -10 6 0
12 -9 12 -21 0 -11 4 -18 9 -15 5 4 7 -3 4 -14 -3 -12 0 -20 6 -20 7 0 11 -6
10 -12 -3 -27 1 -39 13 -32 7 4 8 3 4 -5 -4 -6 -2 -19 6 -28 11 -14 11 -16 -2
-8 -13 8 -13 7 0 -9 8 -10 15 -25 16 -34 2 -8 8 -18 14 -22 7 -4 11 -11 11
-16 -2 -18 12 -49 28 -62 9 -8 10 -11 4 -7 -16 8 -16 3 -1 -30 6 -14 18 -25
27 -25 14 0 14 -2 1 -10 -11 -7 -12 -10 -2 -10 8 0 12 -6 9 -12 -2 -7 5 -21
16 -30 13 -12 15 -18 7 -18 -9 0 -7 -5 5 -13 11 -9 15 -19 10 -27 -5 -8 -4
-11 2 -7 13 8 46 -61 37 -76 -4 -7 -4 -9 1 -5 10 9 35 -16 35 -36 0 -9 5 -16
10 -16 6 0 10 -7 10 -16 0 -8 5 -12 10 -9 5 3 10 -3 10 -14 0 -10 4 -21 9 -23
5 -2 11 -10 13 -18 2 -8 12 -23 22 -32 10 -10 16 -18 12 -18 -4 0 4 -10 17
-22 13 -13 22 -29 20 -35 -3 -7 2 -13 11 -13 8 0 18 -5 22 -12 5 -7 2 -9 -7
-4 -8 4 -2 -4 13 -17 18 -17 23 -27 15 -30 -7 -3 -2 -6 10 -6 16 -1 21 -6 17
-16 -4 -10 0 -15 11 -15 9 0 13 -4 10 -10 -3 -5 -2 -10 4 -10 5 0 13 -9 16
-20 3 -11 14 -20 22 -20 9 0 14 -3 10 -6 -7 -7 55 -70 65 -66 5 1 7 -1 7 -6
-3 -20 3 -31 21 -37 11 -4 18 -11 15 -16 -4 -5 -1 -9 5 -9 15 0 40 -25 40 -41
0 -7 3 -10 6 -6 3 3 16 -4 28 -16 34 -34 88 -72 97 -70 5 2 6 -4 3 -12 -4 -10
0 -15 15 -15 12 0 21 -5 21 -12 0 -6 3 -8 6 -5 4 3 18 -3 32 -14 19 -15 27
-17 33 -7 6 9 9 8 14 -4 4 -10 17 -15 36 -14 16 1 29 -3 29 -9 0 -6 17 -12 37
-13 21 -2 40 -8 44 -14 4 -7 8 -6 12 3 4 10 6 10 6 2 1 -7 14 -13 30 -13 17 0
33 -5 36 -10 5 -8 11 -8 20 0 10 8 16 7 24 -7 6 -10 11 -13 11 -5 0 9 5 10 18
4 9 -5 23 -7 30 -5 6 3 12 -1 12 -9 0 -10 3 -9 10 2 5 8 10 10 10 4 0 -6 6
-11 13 -11 6 -1 31 -2 54 -4 23 -1 40 -5 38 -9 -2 -4 2 -7 10 -7 8 0 11 5 8
11 -4 6 1 5 10 -3 14 -11 17 -11 17 0 0 9 3 10 8 4 9 -12 19 -15 81 -18 26 -2
53 -7 61 -12 9 -5 11 -4 6 3 -4 7 -2 12 3 12 6 0 11 -4 11 -9 0 -6 10 -7 23
-4 12 3 32 6 43 7 14 1 20 6 16 15 -3 9 -1 12 6 7 11 -7 17 6 13 28 -1 5 5 6
13 3 11 -4 13 -1 9 10 -4 11 -2 14 5 9 7 -4 12 -14 12 -22 0 -8 4 -14 10 -14
5 0 9 -3 9 -7 -3 -20 2 -34 10 -29 5 4 11 2 13 -4 1 -5 15 -11 31 -12 15 -1
27 -6 27 -11 0 -5 6 -4 14 2 10 9 16 9 21 1 5 -8 11 -7 23 2 9 7 13 8 9 2 -4
-7 24 -11 86 -13 51 -1 101 -3 112 -5 11 -2 26 2 34 8 11 8 13 8 8 0 -4 -7 0
-15 9 -18 23 -9 31 -7 14 4 -10 6 -6 9 18 8 20 -1 29 -5 25 -12 -4 -6 0 -6 8
1 12 10 18 10 29 0 10 -9 11 -9 6 1 -4 7 -1 12 8 12 9 0 16 -4 16 -10 0 -5 5
-10 11 -10 5 0 8 3 6 8 -8 12 77 10 85 -2 5 -7 8 -6 8 4 0 13 1 13 10 0 9 -13
11 -13 20 0 6 9 13 11 18 5 10 -13 35 -18 27 -5 -3 5 2 10 12 10 10 0 29 10
43 21 14 11 18 18 10 14 -8 -4 -6 1 5 10 11 9 19 18 18 20 -9 16 3 20 47 17
27 -2 49 -7 48 -10 -4 -14 14 -52 23 -52 6 0 8 -4 5 -8 -6 -11 24 -14 129 -14
161 1 205 4 205 16 0 6 4 5 9 -3 8 -12 12 -12 24 -2 11 9 17 9 22 0 6 -8 10
-7 16 2 7 11 9 11 9 -1 0 -13 1 -13 10 0 8 13 10 13 10 0 0 -11 3 -11 12 -2
16 16 31 15 22 0 -6 -10 -4 -10 7 -2 12 10 35 12 139 17 24 1 90 58 90 78 0 6
5 7 10 4 6 -4 8 -11 5 -16 -4 -5 -1 -9 6 -9 7 0 10 -3 6 -6 -10 -10 22 -36 38
-31 7 3 16 1 19 -6 3 -9 5 -9 5 0 1 7 11 10 27 7 14 -3 23 -1 21 3 -3 4 6 9
19 9 15 1 21 -2 17 -10 -4 -6 1 -5 10 2 9 8 21 11 27 7 5 -3 10 0 10 7 0 9 3
9 10 -2 7 -12 10 -12 10 -1 0 7 6 11 14 8 7 -3 19 0 26 6 10 9 11 9 5 -3 -7
-12 -6 -13 6 -4 8 6 27 11 43 12 17 1 33 8 38 15 5 7 8 8 8 1 0 -6 7 -11 15
-11 8 0 12 4 9 9 -3 4 9 6 25 4 17 -2 31 0 31 4 0 4 7 11 16 14 10 4 13 2 8
-7 -6 -8 -3 -8 9 1 9 8 20 11 26 8 5 -4 17 1 25 10 12 11 16 12 16 2 0 -10 2
-10 8 -1 5 7 20 14 35 15 15 1 27 6 27 10 0 4 9 8 20 8 11 0 36 9 55 20 20 11
40 18 46 15 5 -4 6 2 2 11 -4 12 -3 15 5 10 7 -4 15 -1 18 8 3 9 13 16 20 16
8 0 17 7 20 15 4 8 12 15 20 15 8 0 14 7 14 15 0 8 3 14 8 13 12 -4 62 45 55
55 -3 6 -1 7 5 3 13 -8 44 22 37 35 -4 5 2 6 11 2 10 -3 15 -2 12 3 -7 12 47
65 57 56 5 -4 5 -2 2 4 -3 6 2 17 11 26 29 26 51 56 45 62 -4 3 2 6 11 6 12 0
16 5 13 14 -4 11 -1 13 10 9 10 -4 14 -2 10 4 -3 5 3 17 14 26 11 10 17 21 14
26 -2 5 1 11 9 14 14 6 76 92 76 106 0 5 7 12 16 15 8 3 12 10 9 16 -3 6 1 13
9 16 9 3 16 11 16 17 0 6 10 22 23 35 12 14 15 22 7 18 -8 -4 -7 -1 4 8 10 8
15 20 10 27 -4 7 -3 10 3 6 6 -4 21 16 34 43 13 28 27 50 32 50 4 0 6 4 2 9
-3 5 1 16 9 24 8 8 12 17 9 21 -4 3 -1 6 5 6 6 0 13 14 17 30 4 17 11 30 17
30 6 0 8 7 4 15 -3 8 -1 15 4 15 6 0 10 8 10 18 0 10 8 27 18 38 16 18 21 35
25 76 1 9 5 16 10 15 9 -2 17 19 19 51 1 6 5 12 10 12 4 0 8 11 8 25 0 14 5
25 11 25 5 0 7 5 4 10 -3 6 -2 10 2 10 5 0 10 9 11 20 4 44 6 50 15 50 6 0 8
3 5 6 -4 3 0 21 8 40 8 19 12 39 9 44 -3 5 -1 11 5 15 5 3 10 15 10 26 0 11 4
18 8 15 4 -2 7 11 7 29 -1 19 4 36 11 39 7 3 10 14 7 26 -4 13 0 26 8 31 10 6
10 9 2 9 -7 0 -13 4 -13 10 0 5 7 7 15 4 13 -5 14 -2 5 20 -5 14 -6 26 -1 26
5 0 8 11 7 24 -2 17 1 23 10 19 10 -4 11 2 4 27 -7 24 -6 31 3 27 8 -3 12 7
11 32 -1 20 3 44 8 54 6 11 5 17 -2 17 -7 0 -6 6 3 14 8 9 12 26 10 39 -3 14
0 34 6 45 8 15 8 22 -2 25 -8 4 -9 6 0 6 7 1 10 11 7 26 -2 14 0 34 6 45 7 13
7 21 0 25 -6 4 -7 12 -3 18 4 7 9 19 11 27 3 14 3 22 1 53 0 6 2 22 5 35 3 13
0 22 -7 22 -8 0 -7 3 2 9 8 5 12 19 9 35 -3 14 -2 23 2 21 7 -5 3 102 -5 115
-3 5 0 12 6 16 8 5 9 3 4 -6 -5 -8 -4 -11 3 -6 6 4 9 13 6 21 -4 8 -11 12 -17
8 -6 -4 -7 -1 -1 8 13 22 14 90 0 82 -6 -4 -5 1 3 10 7 9 10 24 7 33 -4 9 -1
24 6 32 10 12 10 14 1 8 -9 -5 -13 0 -13 14 0 14 4 19 13 14 6 -4 3 3 -8 16
-11 13 -15 21 -9 17 13 -7 13 131 0 152 -6 9 -5 12 1 8 6 -4 17 1 24 10 12 14
12 16 -1 8 -13 -8 -13 -6 -1 8 7 9 17 14 22 11 5 -3 7 1 4 8 -3 7 6 26 20 42
13 16 22 33 18 39 -3 6 -1 7 5 3 7 -4 12 -3 12 1 0 5 10 19 23 33 13 14 23 27
23 30 0 9 23 45 24 38 0 -12 40 30 40 42 0 5 6 9 13 7 6 -1 11 4 10 11 -2 6 4
12 13 12 8 0 13 4 9 9 -3 5 4 12 15 16 11 3 20 13 20 21 0 8 5 12 10 9 6 -3
10 -1 10 5 0 6 5 8 10 5 6 -3 10 1 10 10 0 9 5 13 10 10 6 -3 13 1 16 9 3 9
10 14 14 11 4 -3 11 2 14 11 3 8 10 12 16 9 5 -3 10 -1 10 4 0 6 7 11 15 11 9
0 27 7 40 16 13 9 29 13 34 10 5 -4 14 2 20 11 6 10 11 12 11 6 0 -7 7 -13 16
-13 9 0 12 5 8 13 -6 9 -5 9 7 0 12 -10 18 -10 27 -1 9 9 12 9 12 -3 0 -12 2
-12 10 1 8 13 10 13 10 1 0 -12 3 -12 12 -3 15 15 31 16 22 0 -5 -7 -3 -8 7
-2 18 11 31 13 101 15 38 1 55 6 51 13 -3 7 -1 6 7 -1 10 -9 18 -9 34 2 11 7
29 11 38 10 10 -2 16 2 15 8 -1 7 4 11 11 10 6 -2 12 2 12 7 0 6 6 10 14 10 8
0 18 9 21 20 4 11 11 18 16 15 5 -4 9 -1 9 6 0 6 8 18 18 26 10 9 11 11 2 7
-10 -5 -9 0 4 14 11 12 16 22 12 22 -3 0 2 12 11 27 14 21 15 25 3 18 -13 -8
-13 -7 -1 8 7 9 10 17 5 17 -5 0 -2 5 6 10 9 6 10 10 3 10 -7 0 -10 9 -8 22 3
12 -1 28 -8 37 -9 12 -9 13 1 7 17 -10 15 -1 -4 18 -12 12 -12 16 -2 16 9 0
10 2 1 8 -6 4 -13 14 -15 22 -6 27 -55 83 -80 93 -10 3 -18 11 -18 17 0 6 -4
8 -10 5 -5 -3 -10 -2 -10 3 0 5 -7 9 -15 10 -8 1 -22 3 -30 4 -8 1 -15 6 -15
11 0 5 -8 3 -17 -4 -14 -12 -16 -12 -8 0 6 11 2 13 -19 9 -14 -3 -29 -1 -32 3
-3 5 -21 2 -40 -6 -19 -8 -32 -10 -29 -5 3 6 1 10 -4 10 -6 0 -11 -5 -11 -11
0 -8 -4 -8 -13 -1 -8 7 -18 7 -27 2 -21 -14 -32 -12 -24 3 5 8 2 8 -9 -2 -9
-7 -17 -10 -17 -5 0 5 -5 2 -10 -6 -5 -8 -10 -10 -10 -5 0 6 -13 10 -30 10
-16 0 -30 -3 -30 -7 0 -5 -7 -8 -16 -8 -8 0 -12 5 -8 11 3 6 -6 3 -22 -7 -18
-13 -25 -14 -20 -5 7 11 6 12 -5 5 -8 -5 -25 -10 -39 -12 -13 -2 -29 -7 -35
-11 -5 -4 -19 -7 -30 -7 -11 1 -23 -2 -26 -7 -3 -4 -16 -10 -29 -12 -13 -2
-28 -9 -34 -15 -5 -5 -18 -10 -29 -10 -10 0 -34 -11 -54 -25 -20 -13 -41 -21
-46 -18 -6 3 -7 1 -4 -4 7 -12 -20 -27 -41 -24 -7 1 -11 -4 -10 -11 2 -7 -3
-12 -9 -10 -7 1 -13 -4 -13 -12 0 -19 -13 -27 -28 -17 -8 5 3 18 33 41 25 19
45 42 45 52 0 10 4 18 10 18 5 0 7 7 4 15 -4 8 -1 15 5 15 9 0 9 5 1 20 -6 11
-7 20 -3 20 4 0 8 13 8 29 0 16 -3 27 -7 24 -5 -2 -8 3 -8 11 0 9 -5 16 -11
16 -5 0 -8 4 -5 9 8 12 -48 71 -66 71 -8 0 -15 6 -15 14 0 8 6 12 15 8 11 -4
13 -2 7 9 -7 12 -6 12 7 1 9 -7 46 -14 85 -15 37 -1 74 -6 82 -11 10 -6 12 -6
7 2 -4 7 -2 12 3 12 6 0 11 -5 11 -11 0 -8 6 -7 17 2 13 11 17 11 20 2 3 -7
11 -13 19 -13 9 0 12 5 8 12 -4 7 -3 8 5 4 18 -11 63 -18 57 -8 -3 5 1 9 9 9
8 0 12 -4 10 -8 -3 -3 6 -9 20 -11 14 -3 25 -1 25 3 0 5 9 9 19 9 11 0 23 9
26 20 4 11 9 18 13 16 11 -7 8 58 -3 66 -6 5 -5 8 3 8 8 0 11 9 8 25 -3 14 0
25 5 25 6 0 7 5 3 12 -5 7 -8 27 -7 45 0 19 -5 34 -14 37 -8 3 -12 10 -8 15 3
5 -4 12 -15 16 -11 4 -18 11 -15 16 4 5 -3 9 -15 9 -11 0 -23 7 -26 15 -4 8
-10 12 -15 9 -5 -3 -9 2 -9 11 0 9 -4 14 -9 11 -5 -3 -22 1 -37 9 -16 8 -24
15 -19 16 6 0 -1 5 -15 11 -14 6 -28 10 -33 10 -4 -1 -6 3 -5 9 2 6 -6 13 -17
15 -11 1 -21 8 -23 13 -2 6 -12 11 -22 11 -10 0 -20 7 -24 15 -3 8 -9 15 -13
14 -22 -4 -33 2 -27 14 4 6 4 9 -1 5 -4 -4 -15 -2 -23 5 -13 10 -14 9 -7 -3 4
-8 -3 -5 -17 8 -13 12 -31 22 -40 22 -9 0 -18 7 -22 15 -3 8 -12 12 -21 9 -8
-3 -15 -1 -15 5 0 6 -11 11 -25 11 -15 0 -25 6 -25 15 0 9 -6 12 -15 9 -8 -4
-15 -2 -15 3 0 5 -10 10 -22 10 -13 1 -24 7 -26 13 -2 5 -12 10 -23 10 -10 0
-19 5 -19 12 0 6 -3 8 -7 5 -3 -4 -17 0 -31 9 -17 11 -22 12 -17 3 5 -8 -1 -5
-13 5 -12 11 -22 15 -22 10 0 -5 -4 -3 -9 4 -4 7 -19 14 -32 16 -39 6 -69 18
-69 28 0 6 -7 8 -15 5 -8 -4 -17 -2 -20 4 -4 5 -11 7 -16 4 -5 -4 -9 -1 -9 5
0 6 -4 8 -10 5 -5 -3 -10 -2 -10 4 0 5 -11 8 -25 6 -14 -1 -25 2 -25 7 0 5 -4
7 -9 3 -5 -3 -12 -1 -16 5 -4 6 -11 8 -16 5 -5 -4 -9 -2 -9 3 0 9 -8 11 -55
14 -14 1 -25 6 -25 11 0 5 -11 7 -25 5 -13 -3 -22 -2 -20 2 5 8 -47 23 -82 24
-12 0 -20 4 -17 8 5 7 -34 13 -65 9 -7 -2 -10 2 -7 7 5 9 -32 18 -106 27 -14
1 -32 7 -40 11 -13 8 -30 11 -85 15 -18 1 -30 5 -28 9 2 4 -15 7 -37 8 -23 1
-45 8 -50 15 -6 9 -8 8 -8 -3 0 -10 -3 -11 -8 -4 -4 6 -21 11 -39 12 -17 0
-42 6 -54 12 -16 9 -20 9 -14 0 6 -9 3 -9 -13 -1 -11 6 -34 11 -49 11 -16 0
-35 6 -42 13 -11 10 -13 10 -7 0 4 -7 2 -13 -3 -13 -6 0 -11 5 -11 11 0 6 -7
9 -15 6 -8 -4 -17 -2 -19 2 -3 5 -17 7 -31 6 -14 -2 -27 1 -31 6 -3 5 -14 4
-26 -2 -15 -8 -19 -8 -14 0 5 7 -7 12 -36 13 -61 2 -66 2 -74 11 -4 4 -14 1
-22 -6 -13 -10 -14 -9 -7 2 6 11 4 13 -8 8 -9 -3 -18 -1 -21 6 -3 8 -5 9 -5 1
-1 -8 -12 -9 -37 -4 -20 5 -42 6 -49 4 -7 -3 -16 0 -20 6 -4 6 -1 9 7 8 7 -2
12 3 10 10 -1 6 3 12 9 12 6 0 8 7 5 16 -3 8 -2 12 4 9 11 -7 32 29 23 39 -3
3 1 6 11 6 9 0 15 4 11 9 -3 5 2 16 11 25 8 9 13 20 9 26 -3 6 1 7 10 4 11 -5
14 -2 8 12 -4 12 -3 15 5 10 8 -5 12 0 12 13 0 11 9 26 20 34 11 8 17 17 14
20 -4 4 4 16 17 28 13 11 18 17 10 13 -9 -5 -12 -3 -7 4 4 7 14 12 22 12 10 0
12 5 7 13 -11 17 -11 30 -1 44 5 6 5 14 -2 18 -6 3 -7 11 -4 17 4 6 3 8 -3 5
-5 -4 -16 5 -23 18 -7 13 -17 22 -22 19 -5 -3 -12 3 -15 15 -5 19 -15 26 -36
22 -5 -1 -6 3 -3 8 4 5 -2 14 -11 20 -10 6 -14 11 -10 11 12 0 -20 30 -32 30
-6 0 -11 5 -11 10 0 6 -7 10 -16 10 -8 0 -13 4 -10 8 3 5 -18 10 -46 11 -29 1
-56 5 -61 8 -5 3 -13 -1 -18 -8 -6 -9 -9 -10 -9 -2 0 6 -9 10 -20 8 -11 -2
-22 1 -26 7 -4 6 -10 5 -15 -3 -8 -12 -11 -11 -19 1 -9 13 -10 13 -10 0 0 -9
-3 -11 -8 -4 -4 5 -34 10 -67 11 -125 2 -164 6 -158 17 4 6 -1 5 -11 -3 -15
-13 -19 -13 -27 0 -6 9 -9 10 -9 2z m1953 -1625 c-2 -5 1 -8 6 -8 6 0 11 4 11
9 0 6 9 9 20 8 11 -1 20 -5 20 -10 0 -4 5 -5 12 -1 7 4 8 3 4 -4 -4 -6 -14 -8
-23 -5 -10 4 -14 2 -9 -5 3 -6 1 -14 -5 -18 -7 -4 -9 -3 -5 4 9 15 -7 23 -24
12 -9 -6 -18 -3 -27 8 -12 15 -12 15 -6 -3 7 -21 5 -20 -16 7 -12 16 -10 17
17 15 17 -1 28 -5 25 -9z m116 -16 c-1 -15 -2 -15 -6 1 -2 9 -9 14 -15 11 -7
-4 -8 -2 -4 5 10 15 26 4 25 -17z m79 3 c23 1 42 -1 42 -5 0 -3 -24 -6 -54 -6
-40 1 -52 4 -48 14 2 8 8 10 11 5 3 -5 25 -8 49 -8z m122 -6 c0 -7 -56 -7 -64
1 -2 3 11 6 30 6 19 0 34 -3 34 -7z m64 2 c-7 -8 -54 -9 -49 -1 2 3 15 6 29 6
14 0 23 -2 20 -5z m-284 -5 c0 -2 -7 -7 -16 -10 -8 -3 -12 -2 -9 4 6 10 25 14
25 6z m-5097 -376 c-3 -3 -11 3 -18 13 -10 13 -14 15 -18 5 -3 -7 -4 -3 -4 10
l1 22 22 -22 c12 -13 19 -25 17 -28z"/>
<path d="M1645 5439 c-4 -6 -5 -12 -2 -15 2 -3 7 2 10 11 7 17 1 20 -8 4z"/>
</g>
</svg>
